<?xml version="1.0" encoding="UTF-8"?>
<svg width="11px" height="11px" viewBox="0 0 11 11" version="1.1" xmlns="http://www.w3.org/2000/svg" xmlns:xlink="http://www.w3.org/1999/xlink">
    <!-- Generator: Sketch 48.2 (47327) - http://www.bohemiancoding.com/sketch -->
    <title>Arrow</title>
    <desc>Created with Sketch.</desc>
    <defs></defs>
    <g id="Page-1" stroke="none" stroke-width="1" fill="none" fill-rule="evenodd">
        <path d="M9.97942501,4.17721519 L5.57613283,0.210970464 C5.43895686,0.0703216878 5.28806698,1.0658141e-13 5.12345793,1.0658141e-13 C4.93141316,1.0658141e-13 4.76680674,0.0703216878 4.62963077,0.210970464 L0.226338588,4.17721519 C-0.0754461959,4.51477063 -0.0754461959,4.84528608 0.226338588,5.16877772 C0.528123345,5.49226667 0.843620958,5.48523477 1.17284065,5.14767932 L5.12345793,1.56118143 L9.03292295,5.14767932 C9.36214369,5.48523477 9.68449826,5.49226667 9.99999982,5.16877772 C10.315504,4.84528608 10.3086457,4.51477063 9.97942501,4.17721519 Z M5.57613283,5.02109705 C5.43895686,4.90857857 5.28806698,4.85232068 5.12345793,4.85232068 C4.93141316,4.85232068 4.76680674,4.90857857 4.62963077,5.02109705 L0.226338588,9.02953586 C0.0891637004,9.17018356 0.0205772708,9.33192587 0.0205772708,9.51476793 C0.0205772708,9.69760999 0.0891637004,9.85935233 0.226338588,10 C0.528123345,10.3094249 0.843620958,10.3094249 1.17284065,10 L5.12345793,6.41350211 L9.03292295,10 C9.36214369,10.3094249 9.68449826,10.3094249 9.99999982,10 C10.315504,9.69057512 10.3086457,9.36709023 9.97942501,9.02953586 L5.57613283,5.02109705 Z" id="Arrow" fill="#898989"></path>
    </g>
</svg>