<?xml version="1.0" encoding="UTF-8"?>
<svg width="20px" height="20px" viewBox="0 0 20 20" version="1.1" xmlns="http://www.w3.org/2000/svg" xmlns:xlink="http://www.w3.org/1999/xlink">
    <!-- Generator: Sketch 48.2 (47327) - http://www.bohemiancoding.com/sketch -->
    <title>List Icon</title>
    <desc>Created with Sketch.</desc>
    <defs></defs>
    <g id="Page-1" stroke="none" stroke-width="1" fill="none" fill-rule="evenodd">
        <path d="M17.9166667,0 C18.4722267,0 18.95833,0.20833 19.375,0.625 C19.79167,1.04167 20,1.52777333 20,2.08333333 L20,17.9166667 C20,18.472225 19.79167,18.9583313 19.375,19.375 C18.95833,19.7916687 18.4722267,20 17.9166667,20 L2.08333333,20 C1.527775,20 1.04166867,19.7916687 0.625,19.375 C0.208331267,18.9583313 0,18.472225 0,17.9166667 L0,2.08333333 C0,1.52777333 0.208331267,1.04167 0.625,0.625 C1.04166867,0.20833 1.527775,0 2.08333333,0 L17.9166667,0 Z M12.5,15.8333333 L12.5,13.3333333 L4.16666667,13.3333333 L4.16666667,15.8333333 L12.5,15.8333333 Z M15.8333333,11.25 L15.8333333,8.75 L4.16666667,8.75 L4.16666667,11.25 L15.8333333,11.25 Z M15.8333333,6.66666667 L15.8333333,4.16666667 L4.16666667,4.16666667 L4.16666667,6.66666667 L15.8333333,6.66666667 Z" id="List-Icon" fill="#D8D8D8"></path>
    </g>
</svg>