<?xml version="1.0" encoding="UTF-8"?>
<svg width="187px" height="53px" viewBox="0 0 187 53" version="1.1" xmlns="http://www.w3.org/2000/svg" xmlns:xlink="http://www.w3.org/1999/xlink">
    <!-- Generator: Sketch 48.1 (47250) - http://www.bohemiancoding.com/sketch -->
    <title>Logo - White BG</title>
    <desc>Created with Sketch.</desc>
    <defs>
        <path d="M16,52.4885729 L35.8146539,52.4885729 C44.6512099,52.4885729 51.8146539,45.3251289 51.8146539,36.4885729 L51.8146539,16 C51.8146539,7.163444 44.6512099,-5.17596268e-15 35.8146539,-3.55271368e-15 L16,-3.55271368e-15 C7.163444,-1.92946468e-15 -1.082166e-15,7.163444 0,16 L0,36.4885729 C1.082166e-15,45.3251289 7.163444,52.4885729 16,52.4885729 Z" id="path-1"></path>
    </defs>
    <g id="3.3---Phone-Number-Verify" stroke="none" stroke-width="1" fill="none" fill-rule="evenodd" transform="translate(-375.000000, -14.000000)">
        <g id="Header">
            <g id="Logo---White-BG" transform="translate(375.000000, 14.000000)">
                <g id="Logo-">
                    <g id="Coin">
                        <g id="Blue-BG">
                            <mask id="mask-2" fill="white">
                                <use xlink:href="#path-1"></use>
                            </mask>
                            <use id="Mask" fill="#256AB4" xlink:href="#path-1"></use>
                            <polygon id="Blue-Piece" fill="#9278D2" mask="url(#mask-2)" points="0 52.4479251 0 0 25.9069569 0 25.9069569 26.2451612"></polygon>
                        </g>
                        <path d="M25.907327,33.3136224 L18.9283866,26.2439115 L25.907327,19.1754504 L32.8862674,26.2439115 L25.907327,33.3136224 Z M38.9917608,12.9892971 C31.7660839,5.66839095 20.04857,5.66839095 12.8228932,12.9892971 C5.59598262,20.3102033 5.59598262,32.1788694 12.8228932,39.4997756 C20.04857,46.8206818 31.7660839,46.8206818 38.9917608,39.4997756 C46.2186713,32.1788694 46.2186713,20.3102033 38.9917608,12.9892971 Z" id="Coin-Copy" fill="#FFC74D" transform="translate(25.907327, 26.244536) rotate(-90.000000) translate(-25.907327, -26.244536) "></path>
                    </g>
                    <g id="Text" transform="translate(65.886034, 18.895886)" fill="#585858" fill-rule="nonzero">
                        <polygon id="V" points="2.5728966 0 8.05165289 11.7415733 13.1671767 0 14.3325475 0 7.7186898 15.11142 7.09816768 15.11142 0 0"></polygon>
                        <polygon id="I" points="26.8792021 0 29.3158865 0 29.3158865 14.7638573 26.8792021 14.7638573"></polygon>
                        <polygon id="N" points="43.6635688 0 45.0256905 0 54.4848692 10.7895539 54.5756773 10.7895539 54.5756773 0 55.65024 0 55.65024 15.11142 55.0902566 15.11142 44.7684008 3.0978411 44.6927274 3.0978411 44.6927274 14.7487459 43.60303 14.7487459"></polygon>
                        <polygon id="F" points="79.593313 0 79.593313 0.95201946 72.51028 0.95201946 72.51028 6.22590504 77.6409385 6.22590504 77.6409385 7.1779245 72.51028 7.1779245 72.51028 14.7336345 70.0735956 14.7336345 70.0735956 0"></polygon>
                        <polygon id="I" points="92.2307757 0 94.6674602 0 94.6674602 14.7638573 92.2307757 14.7638573"></polygon>
                        <polygon id="N" points="108.969738 0 110.33186 0 119.866712 10.7895539 119.95752 10.7895539 119.95752 0 121.077487 0 121.077487 15.11142 120.517504 15.11142 110.195648 3.0978411 110.119974 3.0978411 110.119974 14.7487459 108.969738 14.7487459"></polygon>
                    </g>
                </g>
            </g>
        </g>
    </g>
</svg>