<?xml version="1.0" encoding="UTF-8"?>
<svg width="25px" height="20px" viewBox="0 0 25 20" version="1.1" xmlns="http://www.w3.org/2000/svg" xmlns:xlink="http://www.w3.org/1999/xlink">
    <!-- Generator: Sketch 48.2 (47327) - http://www.bohemiancoding.com/sketch -->
    <title>Page 1</title>
    <desc>Created with Sketch.</desc>
    <defs></defs>
    <g id="Page-1" stroke="none" stroke-width="1" fill="none" fill-rule="evenodd">
        <path d="M8.1332533,9.9850075 C6.05241221,9.9850075 5.0120048,8.94553598 5.0120048,6.86656672 C5.0120048,4.78759745 6.05241221,3.74812594 8.1332533,3.74812594 C10.2140944,3.74812594 11.2545018,4.78759745 11.2545018,6.86656672 C11.2545018,8.94553598 10.2140944,9.9850075 8.1332533,9.9850075 Z M17.4969988,8.75562219 C18.1572667,8.75562219 18.7775098,9.24537106 19.3577431,10.2248876 C20.1780762,11.7041567 20.8083208,13.7131297 21.2484994,16.2518741 L3.7515006,16.2518741 L4.14165666,14.9925037 C4.42176996,14.132931 4.86694553,13.2933583 5.47719088,12.4737631 C6.08743622,11.6541679 6.76270258,11.2443778 7.5030012,11.2443778 C8.36334784,11.2443778 9.37374325,11.5542204 10.5342137,12.173913 C10.934375,12.3938043 11.3845513,12.5037481 11.8847539,12.5037481 C12.4849977,12.5037481 13.1752664,12.063973 13.9555822,11.1844078 C14.8759566,10.1449213 15.6062387,9.46526987 16.1464586,9.14542729 C16.5866372,8.88555472 17.0368135,8.75562219 17.4969988,8.75562219 Z M0,2.48875562 C0,1.80909295 0.240093637,1.22438906 0.720288115,0.734632684 C1.20048244,0.244876312 1.79071279,0 2.4909964,0 L22.5090036,0 C23.1892782,0 23.7745086,0.244876312 24.2647059,0.734632684 C24.7549032,1.22438906 25,1.80909295 25,2.48875562 L25,17.4812594 C25,18.180913 24.7549032,18.7756098 24.2647059,19.2653673 C23.7745086,19.7551249 23.1892782,20 22.5090036,20 L2.4909964,20 C1.81072104,20 1.22549257,19.7551249 0.735294118,19.2653673 C0.245095588,18.7756098 0,18.180913 0,17.4812594 L0,2.48875562 Z M22.5090036,17.4812594 L22.5090036,2.48875562 L2.4909964,2.48875562 L2.4909964,17.4812594 L22.5090036,17.4812594 Z" fill="#D8D8D8"></path>
    </g>
</svg>