<?xml version="1.0" encoding="UTF-8"?>
<svg width="16px" height="18px" viewBox="0 0 16 18" version="1.1" xmlns="http://www.w3.org/2000/svg" xmlns:xlink="http://www.w3.org/1999/xlink">
    <!-- Generator: Sketch 48.1 (47250) - http://www.bohemiancoding.com/sketch -->
    <title>User Icon</title>
    <desc>Created with Sketch.</desc>
    <defs></defs>
    <g id="Artboard" stroke="none" stroke-width="1" fill="none" fill-rule="evenodd" transform="translate(-378.000000, -214.000000)">
        <path d="M385.966805,222.677419 C383.510373,222.677419 381.485477,220.709677 381.485477,218.322581 C381.485477,215.935484 383.510373,214 385.966805,214 C388.423237,214 390.448133,215.967742 390.448133,218.354839 C390.448133,220.741935 388.423237,222.677419 385.966805,222.677419 Z M385.966805,215.354839 C384.273859,215.354839 382.912863,216.677419 382.912863,218.322581 C382.912863,219.967742 384.273859,221.290323 385.966805,221.290323 C387.659751,221.290323 389.020747,219.967742 389.020747,218.322581 C389.020747,216.709677 387.659751,215.354839 385.966805,215.354839 Z M393.236515,232 C393.236515,232 393.236515,232 393.236515,232 L378.697095,232 C378.298755,232 378,231.677419 378,231.322581 C378,227.032258 381.585062,223.548387 386,223.548387 C390.381743,223.548387 393.966805,227 394,231.258065 C394,231.290323 394,231.290323 394,231.322581 C393.966805,231.709677 393.634855,232 393.236515,232 Z M379.427386,230.645161 L392.506224,230.645161 C392.141079,227.451613 389.352697,224.935484 385.966805,224.935484 C382.580913,224.935484 379.792531,227.451613 379.427386,230.645161 Z" id="User-Icon" fill="#585858" fill-rule="nonzero"></path>
    </g>
</svg>