<?xml version="1.0" encoding="UTF-8"?>
<svg width="16px" height="18px" viewBox="0 0 16 18" version="1.1" xmlns="http://www.w3.org/2000/svg" xmlns:xlink="http://www.w3.org/1999/xlink">
    <!-- Generator: Sketch 48.1 (47250) - http://www.bohemiancoding.com/sketch -->
    <title>User Icon Hover</title>
    <desc>Created with Sketch.</desc>
    <defs></defs>
    <g id="Artboard" stroke="none" stroke-width="1" fill="none" fill-rule="evenodd" transform="translate(-506.000000, -214.000000)">
        <path d="M513.966805,222.677419 C511.510373,222.677419 509.485477,220.709677 509.485477,218.322581 C509.485477,215.935484 511.510373,214 513.966805,214 C516.423237,214 518.448133,215.967742 518.448133,218.354839 C518.448133,220.741935 516.423237,222.677419 513.966805,222.677419 Z M513.966805,215.354839 C512.273859,215.354839 510.912863,216.677419 510.912863,218.322581 C510.912863,219.967742 512.273859,221.290323 513.966805,221.290323 C515.659751,221.290323 517.020747,219.967742 517.020747,218.322581 C517.020747,216.709677 515.659751,215.354839 513.966805,215.354839 Z M521.236515,232 C521.236515,232 521.236515,232 521.236515,232 L506.697095,232 C506.298755,232 506,231.677419 506,231.322581 C506,227.032258 509.585062,223.548387 514,223.548387 C518.381743,223.548387 521.966805,227 522,231.258065 C522,231.290323 522,231.290323 522,231.322581 C521.966805,231.709677 521.634855,232 521.236515,232 Z M507.427386,230.645161 L520.506224,230.645161 C520.141079,227.451613 517.352697,224.935484 513.966805,224.935484 C510.580913,224.935484 507.792531,227.451613 507.427386,230.645161 Z" id="User-Icon-Hover" fill="#1E56A0" fill-rule="nonzero"></path>
    </g>
</svg>