<?xml version="1.0" encoding="UTF-8"?>
<svg width="11px" height="14px" viewBox="0 0 11 14" version="1.1" xmlns="http://www.w3.org/2000/svg" xmlns:xlink="http://www.w3.org/1999/xlink">
    <!-- Generator: Sketch 48.2 (47327) - http://www.bohemiancoding.com/sketch -->
    <title>B</title>
    <desc>Created with Sketch.</desc>
    <defs></defs>
    <g id="Page-1" stroke="none" stroke-width="1" fill="none" fill-rule="evenodd">
        <path d="M10.164004,4.30769202 C10.2737874,5.32852981 9.87430717,6.05208081 8.96554889,6.47836576 C9.6791369,6.63541642 10.2127951,6.92427709 10.5665398,7.34495154 C10.9202845,7.76562599 11.0575117,8.36578179 10.9782234,9.14543214 C10.935529,9.54367213 10.8364222,9.89422946 10.6808971,10.1971154 C10.52537,10.5000014 10.3286791,10.749598 10.0908165,10.9459127 C9.85295379,11.1422275 9.55715421,11.3062889 9.20340951,11.4381008 C8.84966686,11.5699127 8.47915505,11.666667 8.09186588,11.7283655 C7.70457671,11.7900641 7.26087733,11.8321306 6.76075545,11.8545669 L6.76075545,14 L5.35188348,14 L5.35188348,11.8882205 C4.86396089,11.8882205 4.49192443,11.8854162 4.23576384,11.8798076 L4.23576384,14 L2.82689187,14 L2.82689187,11.8545669 C2.71711052,11.8545669 2.55243746,11.8531648 2.33287271,11.8503605 C2.1133059,11.8475561 1.94558559,11.846154 1.82970377,11.846154 L0,11.846154 L0.283604185,10.306491 L1.2990898,10.306491 C1.60404182,10.306491 1.78091151,10.1634619 1.82970377,9.87740361 L1.82970377,6.49519161 L1.97608013,6.49519161 C1.93948594,6.48958299 1.8906943,6.48677868 1.82970377,6.48677868 L1.82970377,4.07211508 C1.75041635,3.69070283 1.47901289,3.49999859 1.01548561,3.49999859 L0,3.49999859 L0,2.12019243 L1.93948614,2.12860535 C2.32982545,2.12860535 2.62562503,2.12580105 2.82689187,2.12019243 L2.82689187,0 L4.23576384,0 L4.23576384,2.07812404 C4.73588572,2.06690681 5.10792219,2.0612982 5.35188348,2.0612982 L5.35188348,0 L6.76075545,0 L6.76075545,2.12019243 C7.24257942,2.15945462 7.66950758,2.22255532 8.04154815,2.30949452 C8.41359076,2.39643372 8.75818138,2.52263511 9.07533024,2.68810058 C9.39248115,2.85356605 9.64406368,3.07231337 9.83008396,3.34435008 C10.0161042,3.61638679 10.1274102,3.937497 10.164004,4.30769202 Z M8.19707327,8.89302936 C8.19707327,8.69110412 8.15133155,8.51161899 8.05984606,8.35456644 C7.96836058,8.19751578 7.85552991,8.06851008 7.72134997,7.96754746 C7.58717208,7.86658484 7.41182644,7.78104968 7.19531099,7.71093633 C6.9787935,7.64082486 6.77905337,7.5889414 6.5960824,7.55528782 C6.41311142,7.52163424 6.1874501,7.49639359 5.91909226,7.47956774 C5.65073443,7.46274001 5.44031966,7.45432708 5.28784385,7.45432708 C5.13536804,7.45432708 4.93867721,7.45713139 4.69776523,7.46274001 C4.45685325,7.46834862 4.31200277,7.47115293 4.26320969,7.47115293 L4.26320969,10.3149039 C4.31200277,10.3149039 4.42483343,10.3163061 4.60170578,10.3191104 C4.77857813,10.3219147 4.92495327,10.3233168 5.04083324,10.3233168 C5.15671527,10.3233168 5.31833901,10.3191104 5.52570652,10.3106974 C5.73307403,10.3022826 5.91146693,10.2910654 6.06089343,10.2770439 C6.21031993,10.2630204 6.38414092,10.2391819 6.58236049,10.2055284 C6.78057802,10.1718748 6.94982504,10.1326126 7.09010156,10.0877399 C7.23038012,10.0428691 7.3752306,9.98397485 7.5246571,9.91105719 C7.6740836,9.83813953 7.79453754,9.75400652 7.88602303,9.6586544 C7.97750851,9.5633004 8.05222074,9.45112243 8.11016175,9.32211485 C8.16810276,9.19310726 8.19707327,9.05008002 8.19707327,8.89302936 Z M7.54752898,4.88822144 C7.54752898,4.70312393 7.50941054,4.53906249 7.43317162,4.39603337 C7.35693474,4.25300425 7.26392459,4.13521578 7.15414119,4.04266796 C7.04435984,3.95011827 6.8979847,3.87159388 6.71501373,3.80709103 C6.53204276,3.74258629 6.36432039,3.69631333 6.21184459,3.66826837 C6.05936878,3.6402234 5.87182589,3.61778705 5.64920977,3.60096121 C5.42659571,3.58413348 5.24972541,3.57712271 5.11859683,3.57992701 C4.9874662,3.58273132 4.82279519,3.58553563 4.62457561,3.58833994 C4.42635809,3.59114613 4.30590414,3.59254828 4.26320969,3.59254828 L4.26320969,6.17547978 C4.29370485,6.17547978 4.39891224,6.17688193 4.5788339,6.17968624 C4.75875556,6.18249243 4.90055673,6.18249243 5.00423946,6.17968624 C5.10792424,6.17688193 5.260398,6.17127332 5.46166688,6.16286039 C5.66293372,6.15444747 5.83065609,6.13902189 5.96483398,6.11658555 C6.09901392,6.0941492 6.25606165,6.06330181 6.43598331,6.02403773 C6.61590497,5.98477554 6.76380476,5.93289207 6.87968679,5.86838922 C6.99556881,5.80388449 7.10839947,5.72816441 7.21818083,5.64122521 C7.32796423,5.55428601 7.41029973,5.44631451 7.46519143,5.31730692 C7.52008313,5.18829934 7.54752898,5.0452721 7.54752898,4.88822144 Z" id="B" fill="#E6E6E6"></path>
    </g>
</svg>