<?xml version="1.0" encoding="UTF-8"?>
<svg width="14px" height="20px" viewBox="0 0 14 20" version="1.1" xmlns="http://www.w3.org/2000/svg" xmlns:xlink="http://www.w3.org/1999/xlink">
    <!-- Generator: Sketch 48.2 (47327) - http://www.bohemiancoding.com/sketch -->
    <title>Calculator Icon</title>
    <desc>Created with Sketch.</desc>
    <defs></defs>
    <g id="Page-1" stroke="none" stroke-width="1" fill="none" fill-rule="evenodd">
        <path d="M1.16666667,20 L12.8333333,20 C13.1493063,20 13.4227427,19.8763033 13.6536447,19.6289062 C13.884549,19.3815093 14,19.0885433 14,18.75 L14,1.25 C14,0.9114575 13.884549,0.61849 13.6536447,0.371095 C13.4227427,0.1236975 13.1493063,0 12.8333333,0 L1.16666667,0 C0.850692967,0 0.577258033,0.1236975 0.346354167,0.371095 C0.11545023,0.61849 0,0.9114575 0,1.25 L0,18.75 C0,19.0885433 0.11545023,19.3815093 0.346354167,19.6289062 C0.577258033,19.8763033 0.850692967,20 1.16666667,20 Z M11.3020833,13.3984375 C11.0833333,13.6328125 10.815973,13.75 10.5,13.75 C10.184027,13.75 9.91059067,13.6263025 9.67968867,13.378905 C9.44878433,13.13151 9.33333333,12.8385425 9.33333333,12.5 C9.33333333,12.1614575 9.44878433,11.86849 9.67968867,11.621095 C9.91059067,11.3736975 10.184027,11.25 10.5,11.25 C10.815973,11.25 11.0894093,11.3736975 11.3203113,11.621095 C11.5512157,11.86849 11.6666667,12.1614575 11.6666667,12.5 C11.6666667,12.8385425 11.5451397,13.13802 11.3020833,13.3984375 Z M11.3020833,15.390625 C11.5451397,15.625 11.6666667,15.9114575 11.6666667,16.25 C11.6666667,16.5885425 11.5512157,16.88151 11.3203113,17.128905 C11.0894093,17.3763025 10.815973,17.5 10.5,17.5 C10.184027,17.5 9.91059067,17.3763025 9.67968867,17.128905 C9.44878433,16.88151 9.33333333,16.5885425 9.33333333,16.25 C9.33333333,15.9114575 9.44878433,15.61849 9.67968867,15.371095 C9.91059067,15.1236975 10.184027,15 10.5,15 C10.815973,15 11.0833333,15.1302075 11.3020833,15.390625 Z M11.3020833,9.6484375 C11.0833333,9.8828125 10.815973,10 10.5,10 C10.184027,10 9.91059067,9.8763025 9.67968867,9.628905 C9.44878433,9.38151 9.33333333,9.0885425 9.33333333,8.75 C9.33333333,8.4114575 9.44878433,8.11849 9.67968867,7.871095 C9.91059067,7.6236975 10.184027,7.5 10.5,7.5 C10.815973,7.5 11.0894093,7.6236975 11.3203113,7.871095 C11.5512157,8.11849 11.6666667,8.4114575 11.6666667,8.75 C11.6666667,9.0885425 11.5451397,9.38802 11.3020833,9.6484375 Z M2.33333333,5 L2.33333333,2.5 L11.6666667,2.5 L11.6666667,5 L2.33333333,5 Z M7.80208333,13.3984375 C7.58333333,13.6328125 7.315973,13.75 7,13.75 C6.684027,13.75 6.41059067,13.6263025 6.17968867,13.378905 C5.94878433,13.13151 5.83333333,12.8385425 5.83333333,12.5 C5.83333333,12.1614575 5.94878433,11.86849 6.17968867,11.621095 C6.41059067,11.3736975 6.684027,11.25 7,11.25 C7.315973,11.25 7.58940933,11.3736975 7.82031133,11.621095 C8.05121567,11.86849 8.16666667,12.1614575 8.16666667,12.5 C8.16666667,12.8385425 8.04513967,13.13802 7.80208333,13.3984375 Z M7.80208333,15.390625 C8.04513967,15.625 8.16666667,15.9114575 8.16666667,16.25 C8.16666667,16.5885425 8.05121567,16.88151 7.82031133,17.128905 C7.58940933,17.3763025 7.315973,17.5 7,17.5 C6.684027,17.5 6.41059067,17.3763025 6.17968867,17.128905 C5.94878433,16.88151 5.83333333,16.5885425 5.83333333,16.25 C5.83333333,15.9114575 5.94878433,15.61849 6.17968867,15.371095 C6.41059067,15.1236975 6.684027,15 7,15 C7.315973,15 7.58333333,15.1302075 7.80208333,15.390625 Z M7.80208333,9.6484375 C7.58333333,9.8828125 7.315973,10 7,10 C6.684027,10 6.41059067,9.8763025 6.17968867,9.628905 C5.94878433,9.38151 5.83333333,9.0885425 5.83333333,8.75 C5.83333333,8.4114575 5.94878433,8.11849 6.17968867,7.871095 C6.41059067,7.6236975 6.684027,7.5 7,7.5 C7.315973,7.5 7.58940933,7.6236975 7.82031133,7.871095 C8.05121567,8.11849 8.16666667,8.4114575 8.16666667,8.75 C8.16666667,9.0885425 8.04513967,9.38802 7.80208333,9.6484375 Z M2.66145833,7.890625 C2.90451467,7.6302075 3.184027,7.5 3.5,7.5 C3.815973,7.5 4.08940933,7.6236975 4.32031133,7.871095 C4.55121567,8.11849 4.66666667,8.4114575 4.66666667,8.75 C4.66666667,9.0885425 4.55121567,9.38151 4.32031133,9.628905 C4.08940933,9.8763025 3.815973,10 3.5,10 C3.184027,10 2.91059067,9.8763025 2.67968867,9.628905 C2.44878433,9.38151 2.33333333,9.0885425 2.33333333,8.75 C2.33333333,8.4114575 2.44270833,8.125 2.66145833,7.890625 Z M2.66145833,11.640625 C2.90451467,11.3802075 3.184027,11.25 3.5,11.25 C3.815973,11.25 4.08940933,11.3736975 4.32031133,11.621095 C4.55121567,11.86849 4.66666667,12.1614575 4.66666667,12.5 C4.66666667,12.8385425 4.55121567,13.13151 4.32031133,13.378905 C4.08940933,13.6263025 3.815973,13.75 3.5,13.75 C3.184027,13.75 2.91059067,13.6263025 2.67968867,13.378905 C2.44878433,13.13151 2.33333333,12.8385425 2.33333333,12.5 C2.33333333,12.1614575 2.44270833,11.875 2.66145833,11.640625 Z M2.66145833,15.390625 C2.90451467,15.1302075 3.184027,15 3.5,15 C3.815973,15 4.08940933,15.1236975 4.32031133,15.371095 C4.55121567,15.61849 4.66666667,15.9114575 4.66666667,16.25 C4.66666667,16.5885425 4.55121567,16.88151 4.32031133,17.128905 C4.08940933,17.3763025 3.815973,17.5 3.5,17.5 C3.184027,17.5 2.91059067,17.3763025 2.67968867,17.128905 C2.44878433,16.88151 2.33333333,16.5885425 2.33333333,16.25 C2.33333333,15.9114575 2.44270833,15.625 2.66145833,15.390625 Z" id="Calculator-Icon" fill="#CA8959"></path>
    </g>
</svg>