<?xml version="1.0" encoding="UTF-8"?>
<svg width="25px" height="25px" viewBox="0 0 25 25" version="1.1" xmlns="http://www.w3.org/2000/svg" xmlns:xlink="http://www.w3.org/1999/xlink">
    <!-- Generator: Sketch 48.2 (47327) - http://www.bohemiancoding.com/sketch -->
    <title>Check Icon</title>
    <desc>Created with Sketch.</desc>
    <defs></defs>
    <g id="DeApp---Guest---Check-Mozo-Address---Stats" stroke="none" stroke-width="1" fill="none" fill-rule="evenodd" transform="translate(-957.000000, -614.000000)">
        <g id="Correct---Confirm-Email-Again" transform="translate(289.000000, 604.000000)" fill="#6DC183">
            <g id="Correct-Sign" transform="translate(668.000000, 10.000000)">
                <path d="M12.5,0 C9.0494625,0 6.10352813,1.22069062 3.66210938,3.66210938 C1.22069094,6.10352812 0,9.0494625 0,12.5 C0,15.9505375 1.22069094,18.8964719 3.66210938,21.3378906 C6.10352813,23.7793091 9.0494625,25 12.5,25 C15.9505375,25 18.8964719,23.7793091 21.3378906,21.3378906 C23.7793094,18.8964719 25,15.9505375 25,12.5 C25,9.0494625 23.7793094,6.10352812 21.3378906,3.66210938 C18.8964719,1.22069062 15.9505375,0 12.5,0 Z M18.5729277,9.29409885 L12.4745536,18.2951585 C12.4745536,18.2951585 12.4662908,18.3111168 12.4497651,18.3430364 C12.4332362,18.3749561 12.4084476,18.4068727 12.3753931,18.4387924 C12.3753931,18.4387924 12.3258128,18.4707121 12.2266522,18.5345483 C12.2266522,18.5345483 12.2101265,18.5505066 12.1770719,18.5824263 C12.0779114,18.6462626 11.9622251,18.6941406 11.83001,18.7260602 C11.7969554,18.7260602 11.763904,18.7260602 11.7308495,18.7260602 C11.6647435,18.7579799 11.5821086,18.7579799 11.4829481,18.7260602 C11.4168421,18.7260602 11.3507329,18.7260602 11.284627,18.7260602 C11.2515724,18.6941406 11.1854664,18.662224 11.0863059,18.6303043 C11.0863059,18.6303043 11.0697802,18.6223251 11.0367256,18.6063668 C11.003671,18.5904055 10.9788825,18.5824263 10.9623567,18.5824263 C10.9458279,18.5824263 10.9293022,18.5744472 10.9127733,18.5584858 C10.8962476,18.5425275 10.8797219,18.5265692 10.8631962,18.5106109 C10.8466673,18.4946495 10.8384045,18.4866704 10.8384045,18.4866704 L7.26862453,15.3267239 C7.07030342,15.135212 6.96288002,14.887843 6.94635114,14.5846168 C6.92982544,14.2813876 7.02072315,14.0180602 7.21904425,13.7946287 C7.41736536,13.5711971 7.6735296,13.4594828 7.98754013,13.4594828 C8.3015475,13.4594828 8.57423743,13.5552388 8.80561312,13.7467507 L11.3342072,16.0448936 L16.6888772,8.14502741 C16.8871983,7.88967616 17.1350996,7.73008392 17.4325813,7.66624764 C17.730063,7.60241136 18.0027529,7.65028628 18.2506543,7.80988157 C18.4985588,7.96947687 18.6555625,8.19290539 18.7216685,8.48017325 C18.7877745,8.76744111 18.7381974,9.0387476 18.5729277,9.29409885 Z" id="Check-Icon"></path>
            </g>
        </g>
    </g>
</svg>