<?xml version="1.0" encoding="UTF-8"?>
<svg width="22px" height="15px" viewBox="0 0 22 15" version="1.1" xmlns="http://www.w3.org/2000/svg" xmlns:xlink="http://www.w3.org/1999/xlink">
    <!-- Generator: Sketch 48.2 (47327) - http://www.bohemiancoding.com/sketch -->
    <title>M Symbol</title>
    <desc>Created with Sketch.</desc>
    <defs>
        <path d="M14.6892841,1.05851074 C15.822787,0.870530769 18.7950263,0.892609299 20.0350443,5.0245438 C20.7900237,7.54025349 20.5084723,10.2047426 20.0350443,12.6108246 L20.7564935,12.6108246 C20.8909784,12.6108246 21,12.7242071 21,12.8640714 L21,13.7467532 C21,13.8866176 20.8909784,14 20.7564935,14 L18.0392164,14 C17.9047314,14 17.7957099,13.8866176 17.7957099,13.7467532 L17.7957099,12.8640714 C17.7957099,12.7242071 17.9047314,12.6108246 18.0392164,12.6108246 L18.7950263,12.6108246 C19.1684429,11.3816166 19.1618482,8.50201499 18.642739,6.59079842 C18.2081203,4.69241844 16.8427675,3.14941615 15.1365741,3.14941615 C14.2984698,3.14941615 11.7234966,3.26123639 11.2614712,9.77059408 L11.2614712,10.1169533 L10.7385288,10.1169533 L10.7385288,9.77059408 C10.2765034,3.26123639 7.70153018,3.14941615 6.86342586,3.14941615 C5.15723254,3.14941615 3.79187967,4.69241844 3.357261,6.59079842 C2.83815177,8.50201499 2.83155715,11.3816166 3.20497374,12.6108246 L3.96078364,12.6108246 C4.09526856,12.6108246 4.20429013,12.7242071 4.20429013,12.8640714 L4.20429013,13.7467532 C4.20429013,13.8866176 4.09526856,14 3.96078364,14 L1.24350649,14 C1.10902157,14 1,13.8866176 1,13.7467532 L1,12.8640714 C1,12.7242071 1.10902157,12.6108246 1.24350649,12.6108246 L1.96495568,12.6108246 C1.49152773,10.2047426 1.20997627,7.54025349 1.96495568,5.0245438 C3.20497374,0.892609299 6.17721302,0.870530769 7.3107159,1.05851074 C9.38796792,1.49589635 10.4595166,2.99342092 11.0000001,4.74988443 C11.5404835,2.99342082 12.6120322,1.49589633 14.6892841,1.05851074 Z" id="path-1"></path>
    </defs>
    <g id="Page-1" stroke="none" stroke-width="1" fill="none" fill-rule="evenodd" stroke-linecap="round" stroke-linejoin="round">
        <g id="M-Symbol">
            <use fill="#CA8959" fill-rule="evenodd" style="mix-blend-mode: multiply;" xlink:href="#path-1"></use>
            <use stroke="#CA8959" stroke-width="2" xlink:href="#path-1"></use>
        </g>
    </g>
</svg>