<?xml version="1.0" encoding="UTF-8"?>
<svg width="32px" height="26px" viewBox="0 0 32 26" version="1.1" xmlns="http://www.w3.org/2000/svg" xmlns:xlink="http://www.w3.org/1999/xlink">
    <!-- Generator: Sketch 48.2 (47327) - http://www.bohemiancoding.com/sketch -->
    <title>Complete</title>
    <desc>Created with Sketch.</desc>
    <defs></defs>
    <g id="DeApp---User---BTC---2nd-Step" stroke="none" stroke-width="1" fill="none" fill-rule="evenodd" transform="translate(-834.000000, -730.000000)">
        <g id="Line-#1" transform="translate(310.000000, 678.000000)" fill="#0EACF4" fill-rule="nonzero">
            <g id="Complete" transform="translate(524.000000, 50.000000)">
                <path d="M21.1941108,11.5862069 L16.4781437,11.5862069 L16.4781437,8.82758621 C16.4781437,8.35862069 16.117511,8 15.6459143,8 L2.63539336,8 C1.19286226,8 0,9.1862069 0,10.6206897 L0,25.3793103 C0,26.8137931 1.19286226,28 2.63539336,28 L21.1663698,28 C21.6379665,28 21.9985993,27.6413793 21.9985993,27.1724138 L21.9985993,12.4137931 C22.0263403,11.9448276 21.6379665,11.5862069 21.1941108,11.5862069 Z M20.3618813,21.2965517 L17.4490781,21.2965517 C16.7278126,21.2965517 16.117511,20.6896552 16.117511,19.9724138 C16.117511,19.2551724 16.7278126,18.6482759 17.4490781,18.6482759 L20.3341403,18.6482759 L20.3341403,21.2965517 L20.3618813,21.2965517 Z M2.63539336,9.65517241 L14.8136848,9.65517241 L14.8136848,11.5862069 L2.63539336,11.5862069 C2.10831469,11.5862069 1.66445896,11.1448276 1.66445896,10.6206897 C1.66445896,10.0965517 2.10831469,9.65517241 2.63539336,9.65517241 Z M2.63539336,26.3172414 C2.10831469,26.3172414 1.66445896,25.8758621 1.66445896,25.3517241 L1.66445896,13.0482759 C1.69219995,13.0758621 1.74768191,13.0758621 1.77542289,13.0758621 C1.80316388,13.0758621 1.83090486,13.1034483 1.88638682,13.1034483 C1.94186879,13.1310345 1.99735076,13.1310345 2.02509174,13.1310345 C2.05283272,13.1310345 2.0805737,13.1586207 2.10831469,13.1586207 C2.16379665,13.1586207 2.21927862,13.1862069 2.27476058,13.1862069 C2.30250157,13.1862069 2.33024255,13.1862069 2.35798353,13.1862069 C2.44120648,13.1862069 2.52442943,13.1862069 2.60765238,13.1862069 L20.3063994,13.1862069 L20.3063994,16.937931 L17.4490781,16.937931 C15.7846192,16.937931 14.453052,18.262069 14.453052,19.9172414 C14.453052,21.5724138 15.8123601,22.9517241 17.4490781,22.9517241 L20.3341403,22.9517241 L20.3341403,26.3448276 L2.63539336,26.3448276 L2.63539336,26.3172414 Z" id="Wallet-Icon"></path>
                <path d="M31.1155926,8.32917776 C30.7910603,8.10309082 30.343839,8.18151575 30.1166005,8.50440334 L28.9411605,10.1746247 C28.5787001,8.47749604 27.7482406,6.85649535 26.4243864,5.53967839 C24.60318,3.72737337 22.2097546,2.81711914 19.8229253,2.81810355 C19.5758982,2.81810355 19.329201,2.82761955 19.0825037,2.84697968 C18.6877221,2.87815277 18.3925428,3.22171303 18.4238747,3.61482211 C18.4548768,4.00793118 18.8005168,4.30128637 19.1952984,4.27044142 L19.8229253,4.24583108 C21.8472943,4.24648736 23.865067,5.0126891 25.4098933,6.54935838 C26.5760986,7.70998175 27.2970616,9.13902183 27.5826763,10.6366427 L25.6480155,9.2889808 C25.3234833,9.06289386 24.8759322,9.1413188 24.6490235,9.46420638 C24.4217849,9.78709397 24.5006093,10.232377 24.8251416,10.4584639 L28.0411111,12.6989887 L28.2828613,12.7521471 C28.3409077,12.7672414 28.3804848,12.8181028 28.4431486,12.8181028 C28.4619477,12.8181028 28.4731612,12.799727 28.4913007,12.7980863 L28.5770511,12.8171183 L28.8237484,12.6609247 C28.8732198,12.6274547 28.926319,12.6149855 28.9658962,12.5706869 L29.0401032,12.5237632 L31.2920405,9.32376341 C31.5189492,9.00054768 31.4401248,8.55559284 31.1155926,8.32917776 Z" id="Arrow-In" transform="translate(24.921594, 7.818103) scale(-1, 1) rotate(-70.000000) translate(-24.921594, -7.818103) "></path>
            </g>
        </g>
    </g>
</svg>