<?xml version="1.0" encoding="UTF-8"?>
<svg width="53px" height="35px" viewBox="0 0 53 35" version="1.1" xmlns="http://www.w3.org/2000/svg" xmlns:xlink="http://www.w3.org/1999/xlink">
    <!-- Generator: Sketch 48.2 (47327) - http://www.bohemiancoding.com/sketch -->
    <title>Referal Icon</title>
    <desc>Created with Sketch.</desc>
    <defs></defs>
    <g id="Page-1" stroke="none" stroke-width="1" fill="none" fill-rule="evenodd">
        <path d="M36.0851064,19.966443 C38.1900805,19.966443 40.4829643,20.279637 42.9638298,20.9060403 C45.4446953,21.5324435 47.737579,22.5503281 49.8425532,23.9597315 C51.9475274,25.369135 53,26.9742604 53,28.7751678 L53,35 L38.5659574,35 L38.5659574,28.7751678 C38.5659574,25.3299576 36.9872485,22.4329009 33.8297872,20.0838926 C34.3560308,20.0055903 35.107799,19.966443 36.0851064,19.966443 Z M16.9148936,19.966443 C19.0198678,19.966443 21.3127515,20.279637 23.793617,20.9060403 C26.2744825,21.5324435 28.5485731,22.5503281 30.6159611,23.9597315 C32.6833418,25.369135 33.7170213,26.9742604 33.7170213,28.7751678 L33.7170213,35 L0,35 L0,28.7751678 C0,26.9742604 1.05247193,25.369135 3.15744681,23.9597315 C5.26242169,22.5503281 7.55530471,21.5324435 10.0361702,20.9060403 C12.5170357,20.279637 14.8099195,19.966443 16.9148936,19.966443 Z M16.9148936,15.033557 C14.9602717,15.033557 13.2688039,14.2897192 11.8404255,12.8020134 C10.4120471,11.3143077 9.69787234,9.55258523 9.69787234,7.51677852 C9.69787234,5.48097181 10.4120471,3.7192494 11.8404255,2.23154362 C13.2688039,0.743837852 14.9602717,-2.13162821e-14 16.9148936,-2.13162821e-14 C18.8695156,-2.13162821e-14 20.5421902,0.743837852 21.9329751,2.23154362 C23.3237673,3.7192494 24.0191489,5.48097181 24.0191489,7.51677852 C24.0191489,9.55258523 23.3237673,11.3143077 21.9329751,12.8020134 C20.5421902,14.2897192 18.8695156,15.033557 16.9148936,15.033557 Z M36.0851064,15.033557 C34.1304844,15.033557 32.4390167,14.2897192 31.0106383,12.8020134 C29.5822599,11.3143077 28.8680851,9.55258523 28.8680851,7.51677852 C28.8680851,5.48097181 29.5822599,3.7192494 31.0106383,2.23154362 C32.4390167,0.743837852 34.1304844,-2.13162821e-14 36.0851064,-2.13162821e-14 C38.0397283,-2.13162821e-14 39.7311961,0.743837852 41.1595745,2.23154362 C42.5879529,3.7192494 43.3021277,5.48097181 43.3021277,7.51677852 C43.3021277,9.55258523 42.5879529,11.3143077 41.1595745,12.8020134 C39.7311961,14.2897192 38.0397283,15.033557 36.0851064,15.033557 Z" id="Referal-Icon" fill="#FFFFFF"></path>
    </g>
</svg>